#!OML:ASF E:\Steps\Project 1\Capture day 1\Session 2\Subject.ASF
:FULLY-SPECIFIED
:DEGREES
697
root 21.5816 15.9274 -12.4315 -43.8589 -84.4559 71.1539
lowerback -27.0307 -0.799931 -5.54054
upperback -0.734706 0.725755 -1.51406
thorax 14.2975 -0.0611723 1.70176
lowerneck -0.388269 1.72049 -0.789665
upperneck 10.7042 2.2095 -0.307072
head 3.50887 0.985173 0.102161
rclavicle -1.06226e-014 5.07646e-014
rhumerus -27.1606 -12.6979 -85.0768
rradius 25.3727
rwrist 0.0684525
rhand -8.56956 -55.5374
rfingers 7.12502
rthumb 17.3607 275.218
lclavicle -1.06226e-014 5.07646e-014
lhumerus -30.2716 7.70162 76.6282
lradius 22.5078
lwrist -2.74265
lhand -20.6136 -12.7905
lfingers 7.12502
lthumb 5.74746 17.1115
rfemur -17.1417 8.00345 20.7681
rtibia 7.96148
rfoot -26.1406 -1.07986
rtoes -16.9394
lfemur -52.2061 -10.6081 -17.8077
ltibia 35.8923
lfoot -9.47539 4.88891
ltoes -34.2817
698
root 21.5177 15.9194 -12.4401 -46.0383 -84.397 73.1875
lowerback -26.9417 -0.78853 -5.89254
upperback -0.63898 0.846103 -1.46274
thorax 14.3493 -0.0349781 2.00907
lowerneck -0.687291 1.99122 -0.681377
upperneck 11.0422 2.60219 -0.638738
head 3.69084 1.16582 -0.00713909
rclavicle 7.1314e-015 1.87355e-014
rhumerus -26.6404 -12.0753 -85.2599
rradius 25.4944
rwrist -0.177853
rhand -8.92199 -55.5124
rfingers 7.12502
rthumb 17.0215 275.213
lclavicle 7.1314e-015 1.87355e-014
lhumerus -30.418 7.49204 76.6661
lradius 22.5625
lwrist -2.51714
lhand -21.0503 -11.7645
lfingers 7.12502
lthumb 5.3258 18.1486
rfemur -16.6911 7.80129 20.7798
rtibia 8.0307
rfoot -26.3565 -1.60147
rtoes -21.3402
lfemur -52.3861 -10.6547 -17.794
ltibia 34.3621
lfoot -8.85278 4.42969
ltoes -30.7334
699
root 21.4496 15.9116 -12.4487 -48.1893 -84.3755 75.2259
lowerback -26.9416 -0.734708 -6.14348
upperback -0.530975 1.01096 -1.50582
thorax 14.4634 0.019458 2.16575
lowerneck -0.574731 1.90287 -0.575005
upperneck 10.8942 2.47731 -0.618345
head 3.61829 1.11176 -0.0250655
rclavicle -1.19022e-014 -3.35449e-014
rhumerus -26.162 -11.9835 -85.512
rradius 25.7166
rwrist -0.2028
rhand -8.51325 -55.1353
rfingers 7.12502
rthumb 17.4149 275.625
lclavicle -1.19022e-014 -3.35449e-014
lhumerus -30.4851 7.62838 76.3244
lradius 22.3956
lwrist -3.00351
lhand -20.9877 -11.2579
lfingers 7.12502
lthumb 5.38624 18.6537
rfemur -16.3227 7.59108 20.7713
rtibia 8.14152
rfoot -26.703 -1.75011
rtoes -23.8035
lfemur -52.569 -10.6506 -17.799
ltibia 32.8594
lfoot -8.09902 4.20173
ltoes -33.7673
700
root 21.3768 15.8965 -12.4507 -50.0123 -84.4984 76.9453
lowerback -26.9931 -0.578267 -6.09034
upperback -0.438168 1.22041 -1.55472
thorax 14.5887 0.115271 2.15902
lowerneck -0.568259 1.89263 -0.488865
upperneck 10.8822 2.46407 -0.654644
head 3.61463 1.10764 -0.052409
rclavicle -1.07468e-014 4.69629e-014
rhumerus -25.8125 -11.5668 -85.9195
rradius 26.1534
rwrist -1.22236
rhand -9.02717 -55.3671
rfingers 7.12502
rthumb 16.9203 275.35
lclavicle -1.07468e-014 4.69629e-014
lhumerus -30.5143 8.94122 75.5629
lradius 21.8985
lwrist -4.44852
lhand -20.8374 -11.3135
lfingers 7.12502
lthumb 5.53139 18.5943
rfemur -16.0171 6.84394 20.9211
rtibia 8.30441
rfoot -26.9444 -1.01763
rtoes -24.8276
lfemur -52.7618 -10.5937 -17.5733
ltibia 31.4385
lfoot -7.77532 3.75501
ltoes -33.8662
701
root 21.3043 15.8775 -12.4498 -51.5904 -84.7528 78.3257
lowerback -26.8643 -0.339079 -5.85306
upperback -0.384377 1.45498 -1.52556
thorax 14.5673 0.23802 2.14604
lowerneck -0.55071 1.9307 -0.562298
upperneck 10.9642 2.51669 -0.656105
head 3.63912 1.12925 -0.0382425
rclavicle 5.71506e-016 -1.71949e-014
rhumerus -25.5758 -11.5773 -85.7907
rradius 26.4618
rwrist -0.124668
rhand -6.65051 -54.954
rfingers 7.12502
rthumb 19.2069 275.974
lclavicle 5.71506e-016 -1.71949e-014
lhumerus -30.7071 10.1012 75.006
lradius 21.4901
lwrist -5.59101
lhand -20.5134 -11.7038
lfingers 7.12502
lthumb 5.84419 18.1956
rfemur -15.5513 6.69981 21.2145
rtibia 8.45904
rfoot -27.1989 -0.775638
rtoes -26.2989
lfemur -52.8603 -10.5072 -17.1995
ltibia 29.9963
lfoot -7.57072 3.45928
ltoes -33.5392
702
root 21.2336 15.8601 -12.4469 -52.301 -85.0037 78.7623
lowerback -26.5878 -0.111309 -5.51036
upperback -0.328242 1.63446 -1.50443
thorax 14.4752 0.347298 2.03956
lowerneck -0.623579 2.02802 -0.533952
upperneck 11.1557 2.65474 -0.756254
head 3.72295 1.19147 -0.0696084
rclavicle 1.03617e-014 -3.28492e-014
rhumerus -25.3448 -11.1882 -85.8995
rradius 26.8554
rwrist -0.122595
rhand -6.20368 -55.0101
rfingers 7.12502
rthumb 19.6366 275.962
lclavicle 1.03617e-014 -3.28492e-014
lhumerus -30.9926 10.3481 74.7086
lradius 21.3042
lwrist -5.81014
lhand -21.2345 -11.602
lfingers 7.12502
lthumb 5.14791 18.3155
rfemur -14.8924 6.91552 21.5755
rtibia 8.42521
rfoot -27.4499 -1.06351
rtoes -28.3267
lfemur -52.8928 -10.5616 -16.7766
ltibia 28.5892
lfoot -7.4677 3.42662
ltoes -34.291
703
root 21.1543 15.8489 -12.4488 -57.586 -84.6461 84.0232
lowerback -26.7004 -0.0275493 -5.89457
upperback -0.25852 1.90632 -1.72374
thorax 14.5989 0.445392 2.10968
lowerneck -0.791752 2.08681 -0.514014
upperneck 11.3202 2.74251 -0.832818
head 3.81549 1.2301 -0.0924162
rclavicle -3.31722e-015 4.15957e-014
rhumerus -24.9914 -10.6942 -86.2522
rradius 27.2961
rwrist -0.976781
rhand -3.59037 -54.0211
rfingers 7.12502
rthumb 22.1473 277.227
lclavicle -3.31722e-015 4.15957e-014
lhumerus -31.1852 10.25 74.4211
lradius 21.1384
lwrist -5.69416
lhand -23.3375 -11.014
lfingers 7.12502
lthumb 3.11721 18.943
rfemur -14.5086 6.74463 21.0311
rtibia 8.32547
rfoot -27.5486 -0.853782
rtoes -29.4807
lfemur -52.9781 -10.7105 -17.0458
ltibia 27.0929
lfoot -7.43885 3.34603
ltoes -31.7869
704
root 21.0768 15.8346 -12.4531 -60.7104 -84.6522 87.0152
lowerback -26.6446 0.157273 -5.93336
upperback -0.19175 2.17577 -1.80393
thorax 14.6298 0.5659 2.14037
lowerneck -0.819997 2.07843 -0.520941
upperneck 11.332 2.73352 -0.840621
head 3.82516 1.22517 -0.0936907
rclavicle -8.57259e-016 -1.92324e-014
rhumerus -24.711 -9.92119 -86.5871
rradius 27.7688
rwrist -2.31293
rhand -7.96239 -55.3049
rfingers 7.12502
rthumb 17.945 275.503
lclavicle -8.57259e-016 -1.92324e-014
lhumerus -31.3392 10.2293 74.1697
lradius 20.8652
lwrist -5.71098
lhand -24.3842 -11.4198
lfingers 7.12502
lthumb 2.10631 18.5495
rfemur -14.0791 6.35787 21.0342
rtibia 8.35277
rfoot -27.5635 -0.327994
rtoes -30.3104
lfemur -52.9884 -10.2909 -17.2232
ltibia 25.6774
lfoot -6.89649 3.06413
ltoes -32.2015
